<mxfile host="app.diagrams.net" modified="2024-04-15T19:03:30.778Z" agent="Mozilla/5.0 (X11; Linux x86_64) AppleWebKit/537.36 (KHTML, like Gecko) Chrome/122.0.0.0 Safari/537.36" etag="pEhY_tQaF99nl7GpR4BV" version="24.2.5" type="device">
  <diagram name="Página-1" id="j-1pnS493eY_yhCtEa2N">
    <mxGraphModel dx="1105" dy="763" grid="1" gridSize="10" guides="1" tooltips="1" connect="1" arrows="1" fold="1" page="1" pageScale="1" pageWidth="827" pageHeight="1169" math="0" shadow="0">
      <root>
        <mxCell id="0" />
        <mxCell id="1" parent="0" />
        <mxCell id="wSDQtvBfADdk8U0GYepo-1" value="Competición" style="rounded=0;whiteSpace=wrap;html=1;" parent="1" vertex="1">
          <mxGeometry x="470" y="430" width="120" height="60" as="geometry" />
        </mxCell>
        <mxCell id="wSDQtvBfADdk8U0GYepo-2" value="Categoría" style="rounded=0;whiteSpace=wrap;html=1;" parent="1" vertex="1">
          <mxGeometry x="470" y="150" width="120" height="60" as="geometry" />
        </mxCell>
        <mxCell id="wSDQtvBfADdk8U0GYepo-3" value="Equipo" style="rounded=0;whiteSpace=wrap;html=1;" parent="1" vertex="1">
          <mxGeometry x="80" y="430" width="120" height="60" as="geometry" />
        </mxCell>
        <mxCell id="hrHKTmsS5Yv_HYCeBBAL-15" style="edgeStyle=orthogonalEdgeStyle;rounded=0;orthogonalLoop=1;jettySize=auto;html=1;endArrow=none;endFill=0;" parent="1" source="wSDQtvBfADdk8U0GYepo-4" target="hrHKTmsS5Yv_HYCeBBAL-2" edge="1">
          <mxGeometry relative="1" as="geometry" />
        </mxCell>
        <mxCell id="wSDQtvBfADdk8U0GYepo-4" value="&lt;div&gt;Jugador&lt;/div&gt;" style="rounded=0;whiteSpace=wrap;html=1;" parent="1" vertex="1">
          <mxGeometry x="80" y="750" width="120" height="60" as="geometry" />
        </mxCell>
        <mxCell id="wSDQtvBfADdk8U0GYepo-5" value="&lt;div&gt;Partido&lt;/div&gt;" style="rounded=0;whiteSpace=wrap;html=1;" parent="1" vertex="1">
          <mxGeometry x="320" y="590" width="120" height="60" as="geometry" />
        </mxCell>
        <mxCell id="wSDQtvBfADdk8U0GYepo-6" value="Evento" style="rounded=0;whiteSpace=wrap;html=1;" parent="1" vertex="1">
          <mxGeometry x="360" y="790" width="120" height="60" as="geometry" />
        </mxCell>
        <mxCell id="wSDQtvBfADdk8U0GYepo-7" value="Blog" style="rounded=0;whiteSpace=wrap;html=1;" parent="1" vertex="1">
          <mxGeometry x="280" y="150" width="120" height="60" as="geometry" />
        </mxCell>
        <mxCell id="wSDQtvBfADdk8U0GYepo-8" value="Usuario" style="rounded=0;whiteSpace=wrap;html=1;" parent="1" vertex="1">
          <mxGeometry x="640" y="150" width="120" height="60" as="geometry" />
        </mxCell>
        <mxCell id="wSDQtvBfADdk8U0GYepo-9" value="Pertenece" style="rhombus;whiteSpace=wrap;html=1;" parent="1" vertex="1">
          <mxGeometry x="490" y="280" width="80" height="80" as="geometry" />
        </mxCell>
        <mxCell id="wSDQtvBfADdk8U0GYepo-11" value="Juega" style="rhombus;whiteSpace=wrap;html=1;" parent="1" vertex="1">
          <mxGeometry x="300" y="420" width="80" height="80" as="geometry" />
        </mxCell>
        <mxCell id="wSDQtvBfADdk8U0GYepo-12" value="" style="endArrow=none;html=1;rounded=0;endFill=0;" parent="1" source="wSDQtvBfADdk8U0GYepo-9" target="wSDQtvBfADdk8U0GYepo-2" edge="1">
          <mxGeometry width="50" height="50" relative="1" as="geometry">
            <mxPoint x="390" y="430" as="sourcePoint" />
            <mxPoint x="190" y="200" as="targetPoint" />
          </mxGeometry>
        </mxCell>
        <mxCell id="wSDQtvBfADdk8U0GYepo-15" value="" style="endArrow=block;html=1;rounded=0;endFill=1;" parent="1" source="wSDQtvBfADdk8U0GYepo-9" target="wSDQtvBfADdk8U0GYepo-1" edge="1">
          <mxGeometry width="50" height="50" relative="1" as="geometry">
            <mxPoint x="270" y="140" as="sourcePoint" />
            <mxPoint x="440" y="380" as="targetPoint" />
          </mxGeometry>
        </mxCell>
        <mxCell id="wSDQtvBfADdk8U0GYepo-16" value="" style="endArrow=block;html=1;rounded=0;endFill=1;" parent="1" source="wSDQtvBfADdk8U0GYepo-11" target="wSDQtvBfADdk8U0GYepo-1" edge="1">
          <mxGeometry width="50" height="50" relative="1" as="geometry">
            <mxPoint x="390" y="430" as="sourcePoint" />
            <mxPoint x="440" y="380" as="targetPoint" />
          </mxGeometry>
        </mxCell>
        <mxCell id="wSDQtvBfADdk8U0GYepo-17" value="" style="endArrow=block;html=1;rounded=0;endFill=1;" parent="1" source="wSDQtvBfADdk8U0GYepo-11" target="wSDQtvBfADdk8U0GYepo-3" edge="1">
          <mxGeometry width="50" height="50" relative="1" as="geometry">
            <mxPoint x="390" y="430" as="sourcePoint" />
            <mxPoint x="440" y="380" as="targetPoint" />
          </mxGeometry>
        </mxCell>
        <mxCell id="wSDQtvBfADdk8U0GYepo-19" value="1:N" style="text;html=1;align=center;verticalAlign=middle;whiteSpace=wrap;rounded=0;" parent="1" vertex="1">
          <mxGeometry x="430" y="305" width="60" height="30" as="geometry" />
        </mxCell>
        <mxCell id="wSDQtvBfADdk8U0GYepo-20" value="&lt;div&gt;N:M&lt;/div&gt;" style="text;html=1;align=center;verticalAlign=middle;whiteSpace=wrap;rounded=0;" parent="1" vertex="1">
          <mxGeometry x="310" y="390" width="60" height="30" as="geometry" />
        </mxCell>
        <mxCell id="wSDQtvBfADdk8U0GYepo-21" value="Pertenece" style="rhombus;whiteSpace=wrap;html=1;" parent="1" vertex="1">
          <mxGeometry x="100" y="580" width="80" height="80" as="geometry" />
        </mxCell>
        <mxCell id="wSDQtvBfADdk8U0GYepo-22" value="" style="endArrow=block;html=1;rounded=0;entryX=0.5;entryY=0;entryDx=0;entryDy=0;endFill=1;" parent="1" source="wSDQtvBfADdk8U0GYepo-21" target="wSDQtvBfADdk8U0GYepo-4" edge="1">
          <mxGeometry width="50" height="50" relative="1" as="geometry">
            <mxPoint x="390" y="610" as="sourcePoint" />
            <mxPoint x="440" y="560" as="targetPoint" />
          </mxGeometry>
        </mxCell>
        <mxCell id="wSDQtvBfADdk8U0GYepo-23" value="" style="endArrow=none;html=1;rounded=0;entryX=0.5;entryY=1;entryDx=0;entryDy=0;" parent="1" source="wSDQtvBfADdk8U0GYepo-21" target="wSDQtvBfADdk8U0GYepo-3" edge="1">
          <mxGeometry width="50" height="50" relative="1" as="geometry">
            <mxPoint x="390" y="610" as="sourcePoint" />
            <mxPoint x="440" y="560" as="targetPoint" />
          </mxGeometry>
        </mxCell>
        <mxCell id="wSDQtvBfADdk8U0GYepo-24" value="1:N" style="text;html=1;align=center;verticalAlign=middle;whiteSpace=wrap;rounded=0;" parent="1" vertex="1">
          <mxGeometry x="40" y="605" width="60" height="30" as="geometry" />
        </mxCell>
        <mxCell id="wSDQtvBfADdk8U0GYepo-25" value="Participa" style="rhombus;whiteSpace=wrap;html=1;" parent="1" vertex="1">
          <mxGeometry x="220" y="500" width="80" height="80" as="geometry" />
        </mxCell>
        <mxCell id="wSDQtvBfADdk8U0GYepo-26" value="" style="endArrow=block;html=1;rounded=0;entryX=0;entryY=0;entryDx=0;entryDy=0;endFill=1;" parent="1" source="wSDQtvBfADdk8U0GYepo-25" target="wSDQtvBfADdk8U0GYepo-5" edge="1">
          <mxGeometry width="50" height="50" relative="1" as="geometry">
            <mxPoint x="390" y="560" as="sourcePoint" />
            <mxPoint x="440" y="510" as="targetPoint" />
          </mxGeometry>
        </mxCell>
        <mxCell id="wSDQtvBfADdk8U0GYepo-27" value="" style="endArrow=none;html=1;rounded=0;entryX=1;entryY=1;entryDx=0;entryDy=0;endFill=0;" parent="1" source="wSDQtvBfADdk8U0GYepo-25" target="wSDQtvBfADdk8U0GYepo-3" edge="1">
          <mxGeometry width="50" height="50" relative="1" as="geometry">
            <mxPoint x="350" y="520" as="sourcePoint" />
            <mxPoint x="400" y="470" as="targetPoint" />
          </mxGeometry>
        </mxCell>
        <mxCell id="wSDQtvBfADdk8U0GYepo-28" value="2:N" style="text;html=1;align=center;verticalAlign=middle;whiteSpace=wrap;rounded=0;" parent="1" vertex="1">
          <mxGeometry x="230" y="470" width="60" height="30" as="geometry" />
        </mxCell>
        <mxCell id="wSDQtvBfADdk8U0GYepo-33" value="Sucede" style="rhombus;whiteSpace=wrap;html=1;" parent="1" vertex="1">
          <mxGeometry x="340" y="680" width="80" height="80" as="geometry" />
        </mxCell>
        <mxCell id="wSDQtvBfADdk8U0GYepo-34" value="Realiza" style="rhombus;whiteSpace=wrap;html=1;" parent="1" vertex="1">
          <mxGeometry x="240" y="760" width="80" height="80" as="geometry" />
        </mxCell>
        <mxCell id="wSDQtvBfADdk8U0GYepo-35" value="" style="endArrow=block;html=1;rounded=0;entryX=0;entryY=0.5;entryDx=0;entryDy=0;endFill=1;" parent="1" source="wSDQtvBfADdk8U0GYepo-34" target="wSDQtvBfADdk8U0GYepo-6" edge="1">
          <mxGeometry width="50" height="50" relative="1" as="geometry">
            <mxPoint x="390" y="560" as="sourcePoint" />
            <mxPoint x="440" y="510" as="targetPoint" />
          </mxGeometry>
        </mxCell>
        <mxCell id="wSDQtvBfADdk8U0GYepo-36" value="" style="endArrow=none;html=1;rounded=0;exitX=1;exitY=0.5;exitDx=0;exitDy=0;" parent="1" source="wSDQtvBfADdk8U0GYepo-4" target="wSDQtvBfADdk8U0GYepo-34" edge="1">
          <mxGeometry width="50" height="50" relative="1" as="geometry">
            <mxPoint x="390" y="560" as="sourcePoint" />
            <mxPoint x="440" y="510" as="targetPoint" />
          </mxGeometry>
        </mxCell>
        <mxCell id="wSDQtvBfADdk8U0GYepo-37" value="" style="endArrow=block;html=1;rounded=0;entryX=0.5;entryY=0;entryDx=0;entryDy=0;endFill=1;" parent="1" source="wSDQtvBfADdk8U0GYepo-33" target="wSDQtvBfADdk8U0GYepo-6" edge="1">
          <mxGeometry width="50" height="50" relative="1" as="geometry">
            <mxPoint x="390" y="560" as="sourcePoint" />
            <mxPoint x="440" y="510" as="targetPoint" />
          </mxGeometry>
        </mxCell>
        <mxCell id="wSDQtvBfADdk8U0GYepo-38" value="" style="endArrow=none;html=1;rounded=0;entryX=0.5;entryY=1;entryDx=0;entryDy=0;" parent="1" source="wSDQtvBfADdk8U0GYepo-33" target="wSDQtvBfADdk8U0GYepo-5" edge="1">
          <mxGeometry width="50" height="50" relative="1" as="geometry">
            <mxPoint x="390" y="560" as="sourcePoint" />
            <mxPoint x="440" y="510" as="targetPoint" />
          </mxGeometry>
        </mxCell>
        <mxCell id="caQ9n8z-qlvUyyJy2N5E-3" style="edgeStyle=orthogonalEdgeStyle;rounded=0;orthogonalLoop=1;jettySize=auto;html=1;endArrow=none;endFill=0;" parent="1" source="wSDQtvBfADdk8U0GYepo-39" target="caQ9n8z-qlvUyyJy2N5E-2" edge="1">
          <mxGeometry relative="1" as="geometry" />
        </mxCell>
        <mxCell id="wSDQtvBfADdk8U0GYepo-39" value="" style="triangle;whiteSpace=wrap;html=1;rotation=90;" parent="1" vertex="1">
          <mxGeometry x="390" y="880" width="60" height="80" as="geometry" />
        </mxCell>
        <mxCell id="wSDQtvBfADdk8U0GYepo-40" value="" style="endArrow=none;html=1;rounded=0;entryX=0;entryY=0.5;entryDx=0;entryDy=0;exitX=0.5;exitY=1;exitDx=0;exitDy=0;" parent="1" source="wSDQtvBfADdk8U0GYepo-43" target="wSDQtvBfADdk8U0GYepo-39" edge="1">
          <mxGeometry width="50" height="50" relative="1" as="geometry">
            <mxPoint x="390" y="790" as="sourcePoint" />
            <mxPoint x="440" y="740" as="targetPoint" />
          </mxGeometry>
        </mxCell>
        <mxCell id="wSDQtvBfADdk8U0GYepo-41" value="1:N" style="text;html=1;align=center;verticalAlign=middle;whiteSpace=wrap;rounded=0;" parent="1" vertex="1">
          <mxGeometry x="250" y="730" width="60" height="30" as="geometry" />
        </mxCell>
        <mxCell id="wSDQtvBfADdk8U0GYepo-42" value="1:N" style="text;html=1;align=center;verticalAlign=middle;whiteSpace=wrap;rounded=0;" parent="1" vertex="1">
          <mxGeometry x="420" y="705" width="60" height="30" as="geometry" />
        </mxCell>
        <mxCell id="wSDQtvBfADdk8U0GYepo-44" value="" style="endArrow=none;html=1;rounded=0;entryX=0.5;entryY=0;entryDx=0;entryDy=0;exitX=0.5;exitY=1;exitDx=0;exitDy=0;" parent="1" source="wSDQtvBfADdk8U0GYepo-6" target="wSDQtvBfADdk8U0GYepo-43" edge="1">
          <mxGeometry width="50" height="50" relative="1" as="geometry">
            <mxPoint x="420" y="850" as="sourcePoint" />
            <mxPoint x="420" y="890" as="targetPoint" />
          </mxGeometry>
        </mxCell>
        <mxCell id="wSDQtvBfADdk8U0GYepo-43" value="" style="ellipse;whiteSpace=wrap;html=1;aspect=fixed;" parent="1" vertex="1">
          <mxGeometry x="415" y="870" width="10" height="10" as="geometry" />
        </mxCell>
        <mxCell id="wSDQtvBfADdk8U0GYepo-45" value="Partido jugado" style="rounded=0;whiteSpace=wrap;html=1;" parent="1" vertex="1">
          <mxGeometry x="230" y="920" width="90" height="40" as="geometry" />
        </mxCell>
        <mxCell id="wSDQtvBfADdk8U0GYepo-46" value="Gol" style="rounded=0;whiteSpace=wrap;html=1;" parent="1" vertex="1">
          <mxGeometry x="280" y="1000" width="90" height="40" as="geometry" />
        </mxCell>
        <mxCell id="wSDQtvBfADdk8U0GYepo-47" value="Asistencia" style="rounded=0;whiteSpace=wrap;html=1;" parent="1" vertex="1">
          <mxGeometry x="480" y="1000" width="90" height="40" as="geometry" />
        </mxCell>
        <mxCell id="wSDQtvBfADdk8U0GYepo-48" value="Falta" style="rounded=0;whiteSpace=wrap;html=1;" parent="1" vertex="1">
          <mxGeometry x="520" y="920" width="90" height="40" as="geometry" />
        </mxCell>
        <mxCell id="wSDQtvBfADdk8U0GYepo-49" value="" style="curved=1;endArrow=none;html=1;rounded=0;endFill=0;" parent="1" edge="1">
          <mxGeometry width="50" height="50" relative="1" as="geometry">
            <mxPoint x="360" y="940" as="sourcePoint" />
            <mxPoint x="480" y="940" as="targetPoint" />
            <Array as="points">
              <mxPoint x="380" y="970" />
              <mxPoint x="420" y="990" />
              <mxPoint x="460" y="970" />
            </Array>
          </mxGeometry>
        </mxCell>
        <mxCell id="wSDQtvBfADdk8U0GYepo-50" value="" style="endArrow=none;html=1;rounded=0;exitX=1;exitY=0.5;exitDx=0;exitDy=0;" parent="1" source="wSDQtvBfADdk8U0GYepo-45" target="wSDQtvBfADdk8U0GYepo-39" edge="1">
          <mxGeometry width="50" height="50" relative="1" as="geometry">
            <mxPoint x="390" y="990" as="sourcePoint" />
            <mxPoint x="380" y="960" as="targetPoint" />
          </mxGeometry>
        </mxCell>
        <mxCell id="wSDQtvBfADdk8U0GYepo-51" value="" style="endArrow=none;html=1;rounded=0;exitX=0.5;exitY=0;exitDx=0;exitDy=0;" parent="1" source="wSDQtvBfADdk8U0GYepo-46" target="wSDQtvBfADdk8U0GYepo-39" edge="1">
          <mxGeometry width="50" height="50" relative="1" as="geometry">
            <mxPoint x="390" y="990" as="sourcePoint" />
            <mxPoint x="400" y="980" as="targetPoint" />
          </mxGeometry>
        </mxCell>
        <mxCell id="wSDQtvBfADdk8U0GYepo-52" value="" style="endArrow=none;html=1;rounded=0;exitX=0.5;exitY=0;exitDx=0;exitDy=0;" parent="1" source="wSDQtvBfADdk8U0GYepo-47" target="wSDQtvBfADdk8U0GYepo-39" edge="1">
          <mxGeometry width="50" height="50" relative="1" as="geometry">
            <mxPoint x="390" y="990" as="sourcePoint" />
            <mxPoint x="440" y="940" as="targetPoint" />
          </mxGeometry>
        </mxCell>
        <mxCell id="wSDQtvBfADdk8U0GYepo-53" value="" style="endArrow=none;html=1;rounded=0;exitX=0;exitY=0.5;exitDx=0;exitDy=0;" parent="1" source="wSDQtvBfADdk8U0GYepo-48" target="wSDQtvBfADdk8U0GYepo-39" edge="1">
          <mxGeometry width="50" height="50" relative="1" as="geometry">
            <mxPoint x="390" y="990" as="sourcePoint" />
            <mxPoint x="440" y="940" as="targetPoint" />
          </mxGeometry>
        </mxCell>
        <mxCell id="dUr470J6VGF9MnCjgmfV-1" value="(0,N)" style="text;html=1;align=center;verticalAlign=middle;whiteSpace=wrap;rounded=0;" parent="1" vertex="1">
          <mxGeometry x="410" y="430" width="60" height="30" as="geometry" />
        </mxCell>
        <mxCell id="dUr470J6VGF9MnCjgmfV-2" value="(0,N)" style="text;html=1;align=center;verticalAlign=middle;whiteSpace=wrap;rounded=0;" parent="1" vertex="1">
          <mxGeometry x="200" y="430" width="60" height="30" as="geometry" />
        </mxCell>
        <mxCell id="dUr470J6VGF9MnCjgmfV-3" value="(0,N)" style="text;html=1;align=center;verticalAlign=middle;whiteSpace=wrap;rounded=0;" parent="1" vertex="1">
          <mxGeometry x="470" y="400" width="60" height="30" as="geometry" />
        </mxCell>
        <mxCell id="dUr470J6VGF9MnCjgmfV-4" value="(1,1)" style="text;html=1;align=center;verticalAlign=middle;whiteSpace=wrap;rounded=0;" parent="1" vertex="1">
          <mxGeometry x="470" y="210" width="60" height="30" as="geometry" />
        </mxCell>
        <mxCell id="QA7hFUOrK3iCmuoIGJAD-3" value="(0,N)" style="text;html=1;align=center;verticalAlign=middle;whiteSpace=wrap;rounded=0;" parent="1" vertex="1">
          <mxGeometry x="80" y="720" width="60" height="30" as="geometry" />
        </mxCell>
        <mxCell id="QA7hFUOrK3iCmuoIGJAD-4" value="(0,N)" style="text;html=1;align=center;verticalAlign=middle;whiteSpace=wrap;rounded=0;" parent="1" vertex="1">
          <mxGeometry x="300" y="820" width="60" height="30" as="geometry" />
        </mxCell>
        <mxCell id="QA7hFUOrK3iCmuoIGJAD-5" value="(0,N)" style="text;html=1;align=center;verticalAlign=middle;whiteSpace=wrap;rounded=0;" parent="1" vertex="1">
          <mxGeometry x="420" y="760" width="60" height="30" as="geometry" />
        </mxCell>
        <mxCell id="QA7hFUOrK3iCmuoIGJAD-6" value="(0,N)" style="text;html=1;align=center;verticalAlign=middle;whiteSpace=wrap;rounded=0;" parent="1" vertex="1">
          <mxGeometry x="320" y="560" width="60" height="30" as="geometry" />
        </mxCell>
        <mxCell id="QA7hFUOrK3iCmuoIGJAD-7" value="(1,1)" style="text;html=1;align=center;verticalAlign=middle;whiteSpace=wrap;rounded=0;" parent="1" vertex="1">
          <mxGeometry x="80" y="490" width="60" height="30" as="geometry" />
        </mxCell>
        <mxCell id="QA7hFUOrK3iCmuoIGJAD-8" value="(2,2)" style="text;html=1;align=center;verticalAlign=middle;whiteSpace=wrap;rounded=0;" parent="1" vertex="1">
          <mxGeometry x="160" y="490" width="60" height="30" as="geometry" />
        </mxCell>
        <mxCell id="QA7hFUOrK3iCmuoIGJAD-9" value="(1,1)" style="text;html=1;align=center;verticalAlign=middle;whiteSpace=wrap;rounded=0;" parent="1" vertex="1">
          <mxGeometry x="200" y="750" width="60" height="30" as="geometry" />
        </mxCell>
        <mxCell id="QA7hFUOrK3iCmuoIGJAD-10" value="(1,1)" style="text;html=1;align=center;verticalAlign=middle;whiteSpace=wrap;rounded=0;" parent="1" vertex="1">
          <mxGeometry x="380" y="650" width="60" height="30" as="geometry" />
        </mxCell>
        <mxCell id="caQ9n8z-qlvUyyJy2N5E-2" value="Tiros recibidos" style="rounded=0;whiteSpace=wrap;html=1;" parent="1" vertex="1">
          <mxGeometry x="375" y="1080" width="90" height="40" as="geometry" />
        </mxCell>
        <mxCell id="hrHKTmsS5Yv_HYCeBBAL-1" style="edgeStyle=orthogonalEdgeStyle;rounded=0;orthogonalLoop=1;jettySize=auto;html=1;endArrow=none;endFill=0;" parent="1" source="hrHKTmsS5Yv_HYCeBBAL-2" target="hrHKTmsS5Yv_HYCeBBAL-14" edge="1">
          <mxGeometry relative="1" as="geometry" />
        </mxCell>
        <mxCell id="hrHKTmsS5Yv_HYCeBBAL-2" value="" style="triangle;whiteSpace=wrap;html=1;rotation=90;" parent="1" vertex="1">
          <mxGeometry x="110" y="845" width="60" height="80" as="geometry" />
        </mxCell>
        <mxCell id="hrHKTmsS5Yv_HYCeBBAL-3" value="" style="endArrow=none;html=1;rounded=0;entryX=0;entryY=0.5;entryDx=0;entryDy=0;exitX=0.5;exitY=1;exitDx=0;exitDy=0;" parent="1" source="hrHKTmsS5Yv_HYCeBBAL-4" target="hrHKTmsS5Yv_HYCeBBAL-2" edge="1">
          <mxGeometry width="50" height="50" relative="1" as="geometry">
            <mxPoint x="110" y="755" as="sourcePoint" />
            <mxPoint x="160" y="705" as="targetPoint" />
          </mxGeometry>
        </mxCell>
        <mxCell id="hrHKTmsS5Yv_HYCeBBAL-4" value="" style="ellipse;whiteSpace=wrap;html=1;aspect=fixed;" parent="1" vertex="1">
          <mxGeometry x="135" y="835" width="10" height="10" as="geometry" />
        </mxCell>
        <mxCell id="hrHKTmsS5Yv_HYCeBBAL-6" value="Jugador" style="rounded=0;whiteSpace=wrap;html=1;" parent="1" vertex="1">
          <mxGeometry y="965" width="90" height="40" as="geometry" />
        </mxCell>
        <mxCell id="hrHKTmsS5Yv_HYCeBBAL-9" value="" style="curved=1;endArrow=none;html=1;rounded=0;endFill=0;" parent="1" edge="1">
          <mxGeometry width="50" height="50" relative="1" as="geometry">
            <mxPoint x="80" y="905" as="sourcePoint" />
            <mxPoint x="200" y="905" as="targetPoint" />
            <Array as="points">
              <mxPoint x="100" y="935" />
              <mxPoint x="140" y="955" />
              <mxPoint x="180" y="935" />
            </Array>
          </mxGeometry>
        </mxCell>
        <mxCell id="hrHKTmsS5Yv_HYCeBBAL-11" value="" style="endArrow=none;html=1;rounded=0;exitX=0.5;exitY=0;exitDx=0;exitDy=0;" parent="1" source="hrHKTmsS5Yv_HYCeBBAL-6" target="hrHKTmsS5Yv_HYCeBBAL-2" edge="1">
          <mxGeometry width="50" height="50" relative="1" as="geometry">
            <mxPoint x="110" y="955" as="sourcePoint" />
            <mxPoint x="120" y="945" as="targetPoint" />
          </mxGeometry>
        </mxCell>
        <mxCell id="hrHKTmsS5Yv_HYCeBBAL-14" value="Portero" style="rounded=0;whiteSpace=wrap;html=1;" parent="1" vertex="1">
          <mxGeometry x="95" y="1045" width="90" height="40" as="geometry" />
        </mxCell>
        <mxCell id="jYoymy150psHEMcE4IPV-3" value="Pretenece" style="rhombus;whiteSpace=wrap;html=1;" parent="1" vertex="1">
          <mxGeometry x="480" y="520" width="80" height="80" as="geometry" />
        </mxCell>
        <mxCell id="jYoymy150psHEMcE4IPV-4" value="" style="endArrow=none;html=1;rounded=0;endFill=0;" parent="1" source="jYoymy150psHEMcE4IPV-3" target="wSDQtvBfADdk8U0GYepo-1" edge="1">
          <mxGeometry width="50" height="50" relative="1" as="geometry">
            <mxPoint x="330" y="530" as="sourcePoint" />
            <mxPoint x="380" y="480" as="targetPoint" />
          </mxGeometry>
        </mxCell>
        <mxCell id="jYoymy150psHEMcE4IPV-5" value="" style="endArrow=none;html=1;rounded=0;startArrow=block;startFill=1;" parent="1" source="wSDQtvBfADdk8U0GYepo-5" target="jYoymy150psHEMcE4IPV-3" edge="1">
          <mxGeometry width="50" height="50" relative="1" as="geometry">
            <mxPoint x="330" y="530" as="sourcePoint" />
            <mxPoint x="380" y="480" as="targetPoint" />
          </mxGeometry>
        </mxCell>
        <mxCell id="jYoymy150psHEMcE4IPV-6" value="(0,N)" style="text;html=1;align=center;verticalAlign=middle;whiteSpace=wrap;rounded=0;" parent="1" vertex="1">
          <mxGeometry x="440" y="590" width="60" height="30" as="geometry" />
        </mxCell>
        <mxCell id="jYoymy150psHEMcE4IPV-7" value="(1,1)" style="text;html=1;align=center;verticalAlign=middle;whiteSpace=wrap;rounded=0;" parent="1" vertex="1">
          <mxGeometry x="530" y="490" width="60" height="30" as="geometry" />
        </mxCell>
        <mxCell id="jYoymy150psHEMcE4IPV-8" value="1:N" style="text;html=1;align=center;verticalAlign=middle;whiteSpace=wrap;rounded=0;" parent="1" vertex="1">
          <mxGeometry x="560" y="545" width="60" height="30" as="geometry" />
        </mxCell>
        <mxCell id="jYoymy150psHEMcE4IPV-9" value="Login" style="rounded=0;whiteSpace=wrap;html=1;" parent="1" vertex="1">
          <mxGeometry x="640" y="430" width="120" height="60" as="geometry" />
        </mxCell>
        <mxCell id="jYoymy150psHEMcE4IPV-10" value="Tiene" style="rhombus;whiteSpace=wrap;html=1;" parent="1" vertex="1">
          <mxGeometry x="660" y="280" width="80" height="80" as="geometry" />
        </mxCell>
        <mxCell id="jYoymy150psHEMcE4IPV-11" value="" style="endArrow=none;html=1;rounded=0;" parent="1" source="jYoymy150psHEMcE4IPV-10" target="wSDQtvBfADdk8U0GYepo-8" edge="1">
          <mxGeometry width="50" height="50" relative="1" as="geometry">
            <mxPoint x="890" y="360" as="sourcePoint" />
            <mxPoint x="940" y="310" as="targetPoint" />
          </mxGeometry>
        </mxCell>
        <mxCell id="jYoymy150psHEMcE4IPV-12" value="" style="endArrow=none;html=1;rounded=0;" parent="1" source="jYoymy150psHEMcE4IPV-9" target="jYoymy150psHEMcE4IPV-10" edge="1">
          <mxGeometry width="50" height="50" relative="1" as="geometry">
            <mxPoint x="890" y="380" as="sourcePoint" />
            <mxPoint x="940" y="330" as="targetPoint" />
          </mxGeometry>
        </mxCell>
        <mxCell id="jYoymy150psHEMcE4IPV-13" value="1:1" style="text;html=1;align=center;verticalAlign=middle;whiteSpace=wrap;rounded=0;" parent="1" vertex="1">
          <mxGeometry x="740" y="305" width="60" height="30" as="geometry" />
        </mxCell>
        <mxCell id="jYoymy150psHEMcE4IPV-14" value="(1,1)" style="text;html=1;align=center;verticalAlign=middle;whiteSpace=wrap;rounded=0;" parent="1" vertex="1">
          <mxGeometry x="700" y="210" width="60" height="30" as="geometry" />
        </mxCell>
        <mxCell id="jYoymy150psHEMcE4IPV-15" value="(0,1)" style="text;html=1;align=center;verticalAlign=middle;whiteSpace=wrap;rounded=0;" parent="1" vertex="1">
          <mxGeometry x="700" y="400" width="60" height="30" as="geometry" />
        </mxCell>
      </root>
    </mxGraphModel>
  </diagram>
</mxfile>
